# Wavefront Obj file
# 
# verts: 80 uv-s: 106
mtllib Pillar.mtl

g Cube

v -1.000000 2.605189 -0.757200
v -0.757199 2.605189 -1.000000
v -0.757200 2.605189 1.000000
v -1.000000 2.605189 0.757199
v 0.999999 2.605189 0.757200
v 0.757199 2.605189 1.000000
v 0.757200 2.605189 -1.000000
v 1.000000 2.605189 -0.757199
v 0.757200 -1.000000 -1.000000
v 1.000000 -1.000000 -0.757199
v 1.000000 -1.000000 0.757200
v 0.757200 -1.000000 1.000000
v -0.757200 -1.000000 1.000000
v -1.000000 -1.000000 0.757199
v -1.000000 -1.000000 -0.757200
v -0.757199 -1.000000 -1.000000
v 1.000000 1.000000 -0.757199
v 0.757200 1.000000 -1.000000
v 0.757199 1.000000 1.000000
v 0.999999 1.000000 0.757200
v -1.000000 1.000000 0.757199
v -0.757200 1.000000 1.000000
v -0.757199 1.000000 -1.000000
v -1.000000 1.000000 -0.757200
v -1.286013 3.653731 -0.973768
v -0.973768 3.653731 -1.286013
v -0.973768 3.653731 1.286012
v -1.286013 3.653731 0.973768
v 1.286012 3.653731 0.973769
v 0.973768 3.653731 1.286013
v 0.973769 3.653731 -1.286012
v 1.286013 3.653731 -0.973768
v -1.286013 4.004283 -0.973768
v -0.973768 4.004283 -1.286013
v -0.973769 4.004283 1.286012
v -1.286013 4.004283 0.973768
v 1.286012 4.004283 0.973769
v 0.973768 4.004283 1.286013
v 0.973769 4.004283 -1.286012
v 1.286013 4.004283 -0.973768
v -1.460165 4.275043 -1.105636
v -1.105636 4.275043 -1.460165
v -1.105637 4.275043 1.460164
v -1.460165 4.275043 1.105636
v 1.460164 4.275043 1.105637
v 1.105636 4.275043 1.460166
v 1.105637 4.275043 -1.460164
v 1.460166 4.275043 -1.105635
v 0.903729 -1.855437 -1.193516
v 1.193516 -1.855437 -0.903729
v 1.193516 -1.855437 0.903729
v 0.903729 -1.855437 1.193516
v -0.903730 -1.855437 1.193516
v -1.193516 -1.855437 0.903729
v -1.193515 -1.855437 -0.903730
v -0.903729 -1.855437 -1.193516
v 0.844345 -2.046609 -1.115090
v 1.115090 -2.046609 -0.844345
v 1.115090 -2.046609 0.844345
v 0.844345 -2.046609 1.115090
v -0.844346 -2.046609 1.115090
v -1.115090 -2.046609 0.844345
v -1.115090 -2.046609 -0.844346
v -0.844345 -2.046609 -1.115090
v 0.943274 -2.261587 -1.245740
v 1.245740 -2.261587 -0.943274
v 1.245740 -2.261587 0.943274
v 0.943274 -2.261587 1.245740
v -0.943274 -2.261587 1.245740
v -1.245740 -2.261587 0.943274
v -1.245740 -2.261587 -0.943274
v -0.943273 -2.261587 -1.245740
v 0.943274 -3.379417 -1.245740
v 1.245740 -3.379417 -0.943274
v 1.245740 -3.379417 0.943274
v 0.943274 -3.379417 1.245740
v -0.943274 -3.379417 1.245740
v -1.245740 -3.379417 0.943274
v -1.245739 -3.379417 -0.943274
v -0.943273 -3.379417 -1.245740
# 80 positions

vt 0.476295 0.400704
vt 0.489871 0.217684
vt 0.627202 0.229084
vt 0.432944 0.553470
vt 0.466891 0.554817
vt 0.425493 0.655940
vt 0.298767 0.205327
vt 0.282671 0.376641
vt 0.177653 0.201413
vt 0.785378 0.253778
vt 0.770866 0.410699
vt 0.643054 0.408789
vt 0.775044 0.533788
vt 0.458492 0.215375
vt 0.445320 0.398113
vt 0.328403 0.205954
vt 0.311826 0.381010
vt 0.161427 0.353917
vt 0.136720 0.348973
vt 0.658067 0.232154
vt 0.612924 0.407960
vt 0.667334 0.158291
vt 0.254108 0.518293
vt 0.616128 0.557734
vt 0.648094 0.555369
vt 0.126592 0.474678
vt 0.285522 0.526076
vt 0.462015 0.657949
vt 0.461280 0.687068
vt 0.260005 0.623831
vt 0.102232 0.463848
vt 0.058611 0.531036
vt 0.661742 0.649662
vt 0.626779 0.654566
vt 0.084132 0.548142
vt 0.808428 0.606978
vt 0.422559 0.685075
vt 0.422632 0.711409
vt 0.224387 0.614108
vt 0.252494 0.654281
vt 0.070358 0.570695
vt 0.630006 0.685247
vt 0.214233 0.642329
vt 0.816314 0.633648
vt 0.013692 0.780989
vt 0.042062 0.986308
vt 0.013692 0.957938
vt 0.206585 0.668480
vt 0.044937 0.550052
vt 0.028213 0.565795
vt 0.667628 0.677335
vt 0.635969 0.710280
vt 0.052581 0.588958
vt 0.832402 0.653063
vt 0.811947 0.182706
vt 0.809148 0.163850
vt 0.173441 0.138696
vt 0.328690 0.135867
vt 0.494189 0.144074
vt 0.637133 0.154707
vt 0.152233 0.201242
vt 0.145810 0.140565
vt 0.463706 0.141795
vt 0.671257 0.142623
vt 0.671536 0.120572
vt 0.300828 0.136242
vt 0.173922 0.122881
vt 0.463042 0.124802
vt 0.496967 0.125719
vt 0.637320 0.137564
vt 0.145795 0.125067
vt 0.299372 0.121369
vt 0.820256 0.143636
vt 0.680929 0.033385
vt 0.169748 0.105234
vt 0.330243 0.121301
vt 0.328922 0.103520
vt 0.494955 0.105328
vt 0.641099 0.117040
vt 0.141927 0.108784
vt 0.465424 0.104606
vt 0.748701 0.776069
vt 0.775714 0.971571
vt 0.748701 0.944558
vt 0.301777 0.101552
vt 0.166809 0.027123
vt 0.333032 0.025189
vt 0.645928 0.031248
vt 0.134995 0.029329
vt 0.302241 0.025071
vt 0.497960 0.024241
vt 0.247381 0.780989
vt 0.247381 0.957938
vt 0.219011 0.986308
vt 0.465601 0.024689
vt 0.042062 0.752619
vt 0.219011 0.752619
vt 0.456765 0.714687
vt 0.241287 0.681130
vt 0.670189 0.704643
vt 0.832402 0.053883
vt 0.944203 0.971571
vt 0.971216 0.944558
vt 0.971216 0.776069
vt 0.944203 0.749055
vt 0.775714 0.749056
# 106 texture coordinates

vn -0.977851 -0.153285 -0.142519
vn -0.129244 -0.094711 -0.987079
vn -0.243321 -0.127265 0.961560
vn -0.992890 -0.077702 0.090181
vn 0.977851 -0.153285 0.142519
vn 0.101247 -0.132233 0.986034
vn 0.134739 -0.175973 -0.975130
vn 0.987925 -0.073287 -0.136505
vn 0.175273 0.088300 -0.980552
vn 0.981262 0.100974 -0.164102
vn 0.995233 0.046460 0.085753
vn 0.190724 0.110138 0.975445
vn -0.160176 0.053231 0.985652
vn -0.994573 0.075210 0.071883
vn -0.967484 0.079767 -0.240026
vn -0.071883 0.075210 -0.994573
vn 0.995659 0.000000 -0.093075
vn 0.136875 -0.000000 -0.990588
vn 0.128627 0.000000 0.991693
vn 0.989353 0.000000 0.145539
vn -0.971766 -0.000000 0.235945
vn -0.099363 -0.000000 0.995051
vn -0.235945 -0.000000 -0.971766
vn -0.997257 -0.000000 -0.074011
vn -0.964182 -0.191529 -0.183494
vn -0.089053 -0.233832 -0.968190
vn -0.078442 -0.205969 0.975410
vn -0.959533 -0.238141 0.150284
vn 0.953096 -0.233229 0.192907
vn 0.161041 -0.210456 0.964248
vn 0.111036 -0.181462 -0.977109
vn 0.968080 -0.211963 -0.133763
vn -0.907317 -0.401322 -0.125368
vn -0.134316 -0.192415 -0.972078
vn -0.228910 -0.311295 0.922332
vn -0.974952 -0.203107 0.090640
vn 0.943982 -0.303126 0.130435
vn 0.068928 -0.291283 0.954150
vn 0.164487 -0.382261 -0.909297
vn 0.947045 -0.293229 -0.130857
vn -0.047881 0.998831 -0.006616
vn -0.136062 -0.108791 -0.984709
vn -0.078249 -0.039781 0.996140
vn -0.229850 0.972708 0.031759
vn 0.915244 0.382539 0.126464
vn 0.012742 0.998405 0.055001
vn 0.064004 0.883934 -0.463211
vn 0.153948 0.987850 -0.021272
vn 0.085482 0.157745 -0.983773
vn 0.967318 0.122913 -0.221785
vn 0.984111 0.114171 0.135979
vn 0.119427 0.052839 0.991436
vn -0.098678 0.145181 0.984472
vn -0.968389 0.140738 0.205951
vn -0.990820 0.099962 -0.091019
vn -0.183713 0.077927 -0.979886
vn 0.179618 0.000615 -0.983736
vn 0.987792 0.139052 -0.070217
vn 0.980927 0.139328 0.135540
vn 0.164915 0.278467 0.946181
vn -0.143468 0.033389 0.989092
vn -0.988711 0.109729 0.102036
vn -0.959477 0.203385 -0.195035
vn -0.126492 0.244460 -0.961374
vn 0.074227 0.098792 -0.992336
vn 0.986962 0.068812 -0.145503
vn 0.965031 0.157135 0.209820
vn 0.079790 0.062528 0.994849
vn -0.198585 0.143747 0.969485
vn -0.993190 0.073850 0.090114
vn -0.979710 0.160233 -0.120391
vn -0.233085 0.110232 -0.966189
vn 0.101359 -0.903026 -0.417457
vn 0.408695 -0.910922 -0.056471
vn 0.695056 -0.717103 0.051583
vn 0.231403 -0.195268 0.953060
vn -0.026238 -0.935049 0.353547
vn -0.953060 -0.195268 0.231403
vn -0.956814 -0.258898 -0.132208
vn -0.047524 -0.766601 -0.640363
# 80 normals

usemtl Material
f 18/1/18 9/2/9 16/3/16
f 8/4/8 7/5/7 32/6/32
f 12/7/12 19/8/19 13/9/13
f 14/10/14 21/11/21 24/12/24
f 24/12/24 21/11/21 4/13/4
f 10/14/10 17/15/17 11/16/11
f 9/2/9 18/1/18 10/14/10
f 11/16/11 20/17/20 12/7/12
f 13/9/13 22/18/22 21/19/21
f 15/20/15 24/12/24 23/21/23
f 14/10/14 15/20/15 55/22/55
f 22/18/22 19/8/19 6/23/6
f 20/17/20 17/15/17 8/4/8
f 18/1/18 23/21/23 2/24/2
f 23/21/23 24/12/24 1/25/1
f 21/19/21 22/18/22 3/26/3
f 19/8/19 20/17/20 5/27/5
f 17/15/17 18/1/18 8/4/8
f 32/6/32 31/28/31 39/29/39
f 6/23/6 5/27/5 29/30/29
f 4/31/4 3/26/3 28/32/28
f 2/24/2 1/25/1 25/33/25
f 7/5/7 2/24/2 26/34/26
f 5/27/5 8/4/8 32/6/32
f 3/26/3 6/23/6 27/35/27
f 1/25/1 4/13/4 28/36/28
f 40/37/40 39/29/39 48/38/48
f 30/39/30 29/30/29 37/40/37
f 28/32/28 27/35/27 35/41/35
f 26/34/26 25/33/25 34/42/34
f 31/28/31 26/34/26 34/42/34
f 29/30/29 32/6/32 37/40/37
f 27/35/27 30/39/30 38/43/38
f 25/33/25 28/36/28 36/44/36
f 46/45/46 44/46/44 43/47/43
f 38/43/38 37/40/37 46/48/46
f 36/49/36 35/41/35 44/50/44
f 34/42/34 33/51/33 42/52/42
f 39/29/39 34/42/34 42/52/42
f 37/40/37 40/37/40 48/38/48
f 35/41/35 38/43/38 43/53/43
f 33/51/33 36/44/36 44/54/44
f 54/55/54 55/22/55 62/56/62
f 12/7/12 13/9/13 53/57/53
f 10/14/10 11/16/11 51/58/51
f 16/3/16 9/2/9 49/59/49
f 15/20/15 16/3/16 56/60/56
f 13/9/13 14/61/14 54/62/54
f 11/16/11 12/7/12 51/58/51
f 9/2/9 10/14/10 50/63/50
f 62/56/62 63/64/63 71/65/71
f 52/66/52 53/57/53 61/67/61
f 50/63/50 51/58/51 58/68/58
f 56/60/56 49/59/49 57/69/57
f 55/22/55 56/60/56 64/70/64
f 53/57/53 54/62/54 62/71/62
f 51/58/51 52/66/52 60/72/60
f 49/59/49 50/63/50 57/69/57
f 70/73/70 71/65/71 79/74/79
f 60/72/60 61/67/61 69/75/69
f 58/68/58 59/76/59 67/77/67
f 64/70/64 57/69/57 65/78/65
f 63/64/63 64/70/64 72/79/72
f 61/67/61 62/71/62 70/80/70
f 59/76/59 60/72/60 67/77/67
f 57/69/57 58/68/58 66/81/66
f 77/82/77 75/83/75 76/84/76
f 68/85/68 69/75/69 77/86/77
f 66/81/66 67/77/67 75/87/75
f 72/79/72 65/78/65 80/88/80
f 71/65/71 72/79/72 79/74/79
f 69/75/69 70/80/70 78/89/78
f 67/77/67 68/85/68 76/90/76
f 65/78/65 66/81/66 73/91/73
f 23/21/23 18/1/18 16/3/16
f 6/23/6 30/39/30 27/35/27
f 60/72/60 68/85/68 67/77/67
f 15/20/15 14/10/14 24/12/24
f 1/25/1 24/12/24 4/13/4
f 65/78/65 73/91/73 80/88/80
f 12/7/12 52/66/52 51/58/51
f 7/5/7 31/28/31 32/6/32
f 14/61/14 13/9/13 21/19/21
f 16/3/16 15/20/15 23/21/23
f 54/55/54 14/10/14 55/22/55
f 3/26/3 22/18/22 6/23/6
f 5/27/5 20/17/20 8/4/8
f 7/5/7 18/1/18 2/24/2
f 2/24/2 23/21/23 1/25/1
f 4/31/4 21/19/21 3/26/3
f 6/23/6 19/8/19 5/27/5
f 47/92/47 42/93/42 41/94/41
f 40/37/40 32/6/32 39/29/39
f 30/39/30 6/23/6 29/30/29
f 55/22/55 63/64/63 62/56/62
f 26/34/26 2/24/2 25/33/25
f 31/28/31 7/5/7 26/34/26
f 29/30/29 5/27/5 32/6/32
f 18/1/18 17/15/17 10/14/10
f 25/33/25 1/25/1 28/36/28
f 25/33/25 33/51/33 34/42/34
f 38/43/38 30/39/30 37/40/37
f 36/49/36 28/32/28 35/41/35
f 66/81/66 74/95/74 73/91/73
f 39/29/39 31/28/31 34/42/34
f 72/79/72 80/88/80 79/74/79
f 35/41/35 27/35/27 38/43/38
f 33/51/33 25/33/25 36/44/36
f 46/45/46 41/94/41 44/46/44
f 45/96/45 48/97/48 46/45/46
f 46/45/46 48/97/48 41/94/41
f 48/97/48 47/92/47 41/94/41
f 50/63/50 58/68/58 57/69/57
f 18/1/18 7/5/7 8/4/8
f 39/29/39 47/98/47 48/38/48
f 38/43/38 46/48/46 43/53/43
f 47/98/47 39/29/39 42/52/42
f 45/99/45 37/40/37 48/38/48
f 20/17/20 19/8/19 12/7/12
f 41/100/41 33/51/33 44/54/44
f 51/58/51 59/76/59 58/68/58
f 52/66/52 12/7/12 53/57/53
f 50/63/50 10/14/10 51/58/51
f 56/60/56 16/3/16 49/59/49
f 55/22/55 15/20/15 56/60/56
f 53/57/53 13/9/13 54/62/54
f 37/40/37 45/99/45 46/48/46
f 49/59/49 9/2/9 50/63/50
f 70/73/70 62/56/62 71/65/71
f 60/72/60 52/66/52 61/67/61
f 64/70/64 56/60/56 57/69/57
f 63/64/63 55/22/55 64/70/64
f 61/67/61 53/57/53 62/71/62
f 59/76/59 51/58/51 60/72/60
f 35/41/35 43/53/43 44/50/44
f 78/101/78 70/73/70 79/74/79
f 68/85/68 60/72/60 69/75/69
f 66/81/66 58/68/58 67/77/67
f 72/79/72 64/70/64 65/78/65
f 71/65/71 63/64/63 72/79/72
f 69/75/69 61/67/61 70/80/70
f 33/51/33 41/100/41 42/52/42
f 65/78/65 57/69/57 66/81/66
f 74/102/74 75/83/75 77/82/77
f 73/103/73 74/102/74 77/82/77
f 80/104/80 73/103/73 77/82/77
f 79/105/79 80/104/80 77/82/77
f 78/106/78 79/105/79 77/82/77
f 76/90/76 68/85/68 77/86/77
f 74/95/74 66/81/66 75/87/75
f 19/8/19 22/18/22 13/9/13
f 3/26/3 27/35/27 28/32/28
f 77/86/77 69/75/69 78/89/78
f 75/87/75 67/77/67 76/90/76
f 32/6/32 40/37/40 37/40/37
f 17/15/17 20/17/20 11/16/11

# 156 faces
