# Blender v2.75 (sub 0) OBJ File: ''
# www.blender.org
mtllib box.mtl
o Cube
v 8.527527 -1.000000 -8.561867
v 8.796654 -1.000000 9.207181
v -7.784022 -1.000000 9.305069
v -7.618566 -1.000000 -9.825457
v 8.527527 7.246501 -8.561867
v 8.796653 7.200534 9.207182
v -7.784023 7.154325 9.305069
v -7.618567 7.246501 -9.825457
v 8.662090 7.200534 0.322658
v 0.454480 7.246501 -9.193662
v 0.506315 7.154325 9.256125
v -7.701295 7.038184 -0.260194
v 0.480398 0.202180 0.031232
v 8.729372 7.200534 4.764920
v -3.582043 7.246501 -9.509560
v -3.638854 7.154325 9.280598
v -7.659931 7.038184 -5.042825
v 8.594809 7.200534 -4.119605
v 4.491004 7.246501 -8.877764
v 4.651484 7.154325 9.231653
v -7.742659 7.038184 4.522438
v 0.493356 0.202180 4.643679
v 0.467439 0.202180 -4.581215
v 4.571244 0.202180 0.176945
v -3.610449 0.202180 -0.114481
v -3.596246 0.202180 -4.812020
v 4.531124 0.202180 -4.350410
v 4.611364 0.202180 4.704299
v -3.624651 0.202180 4.583058
v 8.763012 7.200534 6.986051
v -5.600305 7.246501 -9.667508
v -5.711438 7.154325 9.292833
v -7.639249 7.038184 -7.434141
v 8.628449 7.200534 -1.898474
v 2.472742 7.246501 -9.035713
v 2.578900 7.154325 9.243889
v -7.721977 7.038184 2.131122
v 0.499836 0.202180 6.949902
v 0.473918 0.202180 -2.274992
v 6.616667 0.202180 0.249801
v -1.565026 0.202180 -0.041625
v 8.695731 7.200534 2.543789
v -1.563781 7.246501 -9.351610
v -1.566269 7.154325 9.268362
v -7.680613 7.038184 -2.651510
v 8.561168 7.200534 -6.340735
v 6.509265 7.246501 -8.719815
v 6.724069 7.154325 9.219418
v -7.763341 7.038184 6.913754
v 0.486877 0.202180 2.337455
v 0.460960 0.202180 -6.887438
v 2.525821 0.202180 0.104088
v -5.655872 0.202180 -0.187337
v -3.603347 0.202180 -2.463251
v -3.589145 0.202180 -7.160790
v -1.564404 0.202180 -4.696618
v -5.628088 0.202180 -4.927423
v 4.551184 0.202180 -2.086732
v 4.511064 0.202180 -6.614087
v 6.562966 0.202180 -4.235007
v 2.499281 0.202180 -4.465812
v 4.631424 0.202180 6.967976
v 4.591304 0.202180 2.440622
v 6.670368 0.202180 4.734610
v 2.552360 0.202180 4.673989
v -3.631753 0.202180 6.931828
v -3.617550 0.202180 2.234289
v -1.565648 0.202180 4.613369
v -5.683655 0.202180 4.552748
v -5.669764 0.202180 2.182705
v -1.565337 0.202180 2.285872
v -1.565958 0.202180 6.940866
v 2.539091 0.202180 2.389039
v 6.643517 0.202180 2.492205
v 6.697218 0.202180 6.977014
v 2.486012 0.202180 -6.750763
v 6.536116 0.202180 -6.477411
v 6.589817 0.202180 -1.992603
v -5.614197 0.202180 -7.297465
v -1.564093 0.202180 -7.024114
v -1.564715 0.202180 -2.369121
v -5.641980 0.202180 -2.557380
v 2.512551 0.202180 -2.180862
v 2.565630 0.202180 6.958939
v -5.697546 0.202180 6.922791
v 8.779833 7.200534 8.096617
v -6.609436 7.246501 -9.746483
v -6.747730 7.154325 9.298951
v -7.628908 7.038184 -8.629799
v 8.645269 7.200534 -0.787908
v 1.463611 7.246501 -9.114687
v 1.542607 7.154325 9.250008
v -7.711636 7.038184 0.935464
v 0.503076 0.202180 8.103014
v 0.477158 0.202180 -1.121880
v 7.639379 0.202180 0.286229
v -0.542314 0.202180 -0.005196
v 8.712551 7.200534 3.654354
v -2.572912 7.246501 -9.430585
v -2.602562 7.154325 9.274480
v -7.670272 7.038184 -3.847167
v 8.577988 7.200534 -5.230170
v 5.500134 7.246501 -8.798790
v 5.687777 7.154325 9.225535
v -7.753000 7.038184 5.718096
v 0.490117 0.202180 3.490567
v 0.464199 0.202180 -5.734326
v 3.548532 0.202180 0.140517
v -4.633161 0.202180 -0.150909
v -3.606898 0.202180 -1.288866
v -3.592695 0.202180 -5.986405
v -0.548482 0.202180 -4.638916
v -4.612167 0.202180 -4.869721
v 4.561213 0.202180 -0.954894
v 4.521093 0.202180 -5.482248
v 7.578887 0.202180 -4.177306
v 3.515203 0.202180 -4.408111
v 4.641454 0.202180 8.099814
v 4.601334 0.202180 3.572460
v 7.699870 0.202180 4.749764
v 3.581862 0.202180 4.689144
v -3.635303 0.202180 8.106213
v -3.621101 0.202180 3.408674
v -0.536146 0.202180 4.628524
v -4.654153 0.202180 4.567903
v 8.746192 7.200534 5.875485
v -4.591174 7.246501 -9.588533
v -4.675146 7.154325 9.286716
v -7.649590 7.038184 -6.238483
v 8.611629 7.200534 -3.009039
v 3.481873 7.246501 -8.956738
v 3.615192 7.154325 9.237771
v -7.732318 7.038184 3.326780
v 0.496596 0.202180 5.796790
v 0.470679 0.202180 -3.428103
v 5.593955 0.202180 0.213373
v -2.587737 0.202180 -0.078053
v 8.678911 7.200534 1.433223
v -0.554651 7.246501 -9.272636
v -0.529977 7.154325 9.262243
v -7.690954 7.038184 -1.455852
v 8.544348 7.200534 -7.451301
v 7.518396 7.246501 -8.640841
v 7.760361 7.154325 9.213300
v -7.773682 7.038184 8.109411
v 0.483637 0.202180 1.184344
v 0.457720 0.202180 -8.040550
v 1.503109 0.202180 0.067660
v -6.678583 0.202180 -0.223766
v -3.599797 0.202180 -3.637635
v -3.585594 0.202180 -8.335175
v -2.580325 0.202180 -4.754319
v -6.644010 0.202180 -4.985124
v 4.541154 0.202180 -3.218571
v 4.501034 0.202180 -7.745925
v 5.547045 0.202180 -4.292708
v 1.483360 0.202180 -4.523514
v 4.621394 0.202180 5.836138
v 4.581274 0.202180 1.308783
v 5.640866 0.202180 4.719454
v 1.522858 0.202180 4.658834
v -3.628202 0.202180 5.757443
v -3.613999 0.202180 1.059904
v -2.595150 0.202180 4.598213
v -6.713157 0.202180 4.537593
v -5.676709 0.202180 3.367726
v -5.662818 0.202180 0.997684
v -4.643657 0.202180 2.208497
v -6.695870 0.202180 2.156914
v -1.565492 0.202180 3.449620
v -1.565181 0.202180 1.122124
v -0.539230 0.202180 2.311664
v -2.591443 0.202180 2.260080
v -1.566114 0.202180 8.104614
v -1.565803 0.202180 5.777117
v -0.533061 0.202180 6.945384
v -2.598855 0.202180 6.936347
v 2.545725 0.202180 3.531514
v 2.532456 0.202180 1.246563
v 3.565197 0.202180 2.414830
v 1.512984 0.202180 2.363247
v 6.656943 0.202180 3.613408
v 6.630092 0.202180 1.371003
v 7.669624 0.202180 2.517997
v 5.617411 0.202180 2.466413
v 6.710644 0.202180 8.098215
v 6.683793 0.202180 5.855812
v 7.730115 0.202180 6.981532
v 5.664321 0.202180 6.972495
v 2.492646 0.202180 -5.608288
v 2.479377 0.202180 -7.893238
v 3.498538 0.202180 -6.682425
v 1.473486 0.202180 -6.819100
v 6.549541 0.202180 -5.356209
v 6.522690 0.202180 -7.598613
v 7.548642 0.202180 -6.409073
v 5.523590 0.202180 -6.545749
v 6.603242 0.202180 -0.871401
v 6.576391 0.202180 -3.113805
v 7.609133 0.202180 -1.945538
v 5.570500 0.202180 -2.039668
v -5.621142 0.202180 -6.112444
v -5.607251 0.202180 -8.482487
v -4.601671 0.202180 -7.229128
v -6.626723 0.202180 -7.365803
v -1.564248 0.202180 -5.860366
v -1.563937 0.202180 -8.187862
v -0.551566 0.202180 -6.955776
v -2.576619 0.202180 -7.092452
v -1.564870 0.202180 -1.205373
v -1.564559 0.202180 -3.532869
v -0.545398 0.202180 -2.322056
v -2.584031 0.202180 -2.416186
v -5.648926 0.202180 -1.372359
v -5.635035 0.202180 -3.742401
v -4.622663 0.202180 -2.510315
v -6.661296 0.202180 -2.604445
v 2.519186 0.202180 -1.038387
v 2.505916 0.202180 -3.323337
v 3.531867 0.202180 -2.133797
v 1.493235 0.202180 -2.227927
v 2.572265 0.202180 8.101414
v 2.558995 0.202180 5.816463
v 3.598527 0.202180 6.963457
v 1.532733 0.202180 6.954420
v -5.704493 0.202180 8.107812
v -5.690600 0.202180 5.737769
v -4.664649 0.202180 6.927309
v -6.730444 0.202180 6.918272
v -6.721800 0.202180 5.727932
v -4.659401 0.202180 5.747606
v -4.669898 0.202180 8.107012
v 1.527796 0.202180 5.806627
v 3.590194 0.202180 5.826301
v 3.606859 0.202180 8.100615
v 1.488297 0.202180 -3.375720
v 3.523535 0.202180 -3.270954
v 3.540200 0.202180 -0.996640
v -6.652653 0.202180 -3.794784
v -4.617415 0.202180 -3.690018
v -4.627912 0.202180 -1.330612
v -2.582178 0.202180 -3.585253
v -0.546940 0.202180 -3.480486
v -0.543856 0.202180 -1.163626
v -2.574765 0.202180 -8.261518
v -0.553109 0.202180 -8.114206
v -0.550024 0.202180 -5.797346
v -6.618079 0.202180 -8.556143
v -4.596422 0.202180 -8.408831
v -4.606919 0.202180 -6.049425
v 5.558773 0.202180 -3.166188
v 7.594010 0.202180 -3.061422
v 7.624256 0.202180 -0.829654
v 5.511862 0.202180 -7.672269
v 7.533519 0.202180 -7.524957
v 7.563765 0.202180 -5.293190
v 1.468548 0.202180 -7.966894
v 3.490205 0.202180 -7.819582
v 3.506870 0.202180 -5.545268
v 5.652594 0.202180 5.845975
v 7.714993 0.202180 5.865648
v 7.745238 0.202180 8.097416
v 5.605683 0.202180 1.339893
v 7.654501 0.202180 1.402113
v 7.684747 0.202180 3.633881
v 1.508047 0.202180 1.215454
v 3.556865 0.202180 1.277673
v 3.573530 0.202180 3.551987
v -2.597003 0.202180 5.767280
v -0.534603 0.202180 5.786954
v -0.531519 0.202180 8.103813
v -2.589590 0.202180 1.091014
v -0.540772 0.202180 1.153234
v -0.537688 0.202180 3.470094
v -6.687227 0.202180 0.966574
v -4.638409 0.202180 1.028794
v -4.648905 0.202180 3.388200
v -6.704514 0.202180 3.347253
v -2.593297 0.202180 3.429147
v -2.600708 0.202180 8.105413
v 1.517921 0.202180 3.511040
v 5.629138 0.202180 3.592934
v 5.676049 0.202180 8.099015
v 1.478423 0.202180 -5.671307
v 5.535317 0.202180 -5.419229
v 5.582228 0.202180 -0.913147
v -6.635366 0.202180 -6.175464
v -2.578472 0.202180 -5.923386
v -2.585884 0.202180 -1.247119
v -6.669940 0.202180 -1.414105
v 1.498172 0.202180 -1.080133
v 1.537670 0.202180 8.102214
v -6.739087 0.202180 8.108612
vn 0.000000 -1.000000 -0.000000
vn 0.727700 0.221100 -0.649200
vn 0.999900 -0.000000 -0.015100
vn 0.005900 -0.000000 1.000000
vn -1.000000 -0.000000 -0.008600
vn 0.078000 0.000000 -0.997000
vn -0.003300 0.163300 -0.986600
vn 0.000000 1.000000 0.000000
vn 0.989000 0.147900 0.007900
vn 0.989100 0.146900 0.007900
vn -0.003300 0.160300 -0.987100
vn -0.003300 0.166200 -0.986100
vn 0.988800 0.148800 0.007900
vn 0.988900 0.148300 0.007900
vn -0.003300 0.164700 -0.986300
vn -0.003300 0.158900 -0.987300
vn 0.989200 0.146500 0.007900
vn 0.989000 0.147400 0.007900
vn -0.003300 0.161800 -0.986800
vn -0.003300 0.167700 -0.985800
vn 0.988800 0.149300 0.007900
vn 0.988800 0.149100 0.007900
vn -0.003300 0.166900 -0.986000
vn -0.003300 0.161100 -0.986900
vn 0.989100 0.147200 0.007900
vn -0.074300 0.162900 0.983800
vn -0.074300 0.163700 0.983700
vn -0.074400 0.161400 0.984100
vn -0.074300 0.162200 0.984000
vn -0.074300 0.165900 0.983300
vn 0.699200 0.221800 0.679700
vn -0.074300 0.164400 0.983600
vn -0.074300 0.165100 0.983500
vn -0.989500 0.143900 0.014200
vn -0.989500 0.143700 0.014200
vn -0.989400 0.144400 0.014200
vn -0.989500 0.144100 0.014200
vn -0.074400 0.157000 0.984800
vn -0.074400 0.157700 0.984700
vn -0.989600 0.142900 0.014200
vn -0.738300 0.199000 0.644400
vn -0.074400 0.156200 0.984900
vn -0.989600 0.143400 0.014200
vn -0.989600 0.143200 0.014200
vn -0.074400 0.160000 0.984300
vn -0.074400 0.160700 0.984200
vn -0.074400 0.158500 0.984600
vn -0.074400 0.159200 0.984400
vn -0.989200 0.145900 0.014200
vn -0.989200 0.145600 0.014200
vn -0.726000 0.212800 -0.654000
vn -0.989200 0.146100 0.014200
vn -0.989300 0.144900 0.014200
vn -0.989400 0.144600 0.014200
vn -0.989300 0.145400 0.014200
vn -0.989300 0.145100 0.014200
vn -0.003300 0.164000 -0.986500
vn 0.988900 0.148100 0.007900
vn 0.988900 0.148600 0.007900
vn -0.003300 0.165500 -0.986200
vn -0.003300 0.159600 -0.987200
vn 0.989100 0.146700 0.007900
vn 0.989000 0.147600 0.007900
vn -0.003300 0.162500 -0.986700
vn -0.003300 0.168400 -0.985700
vn 0.988700 0.149500 0.007900
usemtl Material
s off
f 1//1 2//1 3//1 4//1
f 293//2 145//2 7//2 88//2
f 1//3 5//3 142//3 46//3 102//3 18//3 130//3 34//3 90//3 9//3 138//3 42//3 98//3 14//3 126//3 30//3 86//3 6//3 2//3
f 2//4 6//4 144//4 48//4 104//4 20//4 132//4 36//4 92//4 11//4 140//4 44//4 100//4 16//4 128//4 32//4 88//4 7//4 3//4
f 3//5 7//5 145//5 49//5 105//5 21//5 133//5 37//5 93//5 12//5 141//5 45//5 101//5 17//5 129//5 33//5 89//5 8//5 4//5
f 5//6 1//6 4//6 8//6 87//6 31//6 127//6 15//6 99//6 43//6 139//6 10//6 91//6 35//6 131//6 19//6 103//6 47//6 143//6
f 292//7 94//7 11//7 92//7
f 291//8 95//8 13//8 148//8
f 290//9 141//9 12//9 149//9
f 289//8 110//8 25//8 137//8
f 288//8 111//8 26//8 152//8
f 287//10 129//10 17//10 153//10
f 286//8 114//8 24//8 136//8
f 285//8 115//8 27//8 156//8
f 284//8 107//8 23//8 157//8
f 283//11 118//11 20//11 104//11
f 282//8 119//8 28//8 160//8
f 281//8 106//8 22//8 161//8
f 280//12 122//12 16//12 100//12
f 279//8 123//8 29//8 164//8
f 278//13 133//13 21//13 165//13
f 277//8 166//8 69//8 125//8
f 276//8 167//8 70//8 168//8
f 275//14 93//14 37//14 169//14
f 274//8 170//8 68//8 124//8
f 273//8 171//8 71//8 172//8
f 272//8 163//8 67//8 173//8
f 271//15 174//15 44//15 140//15
f 270//8 175//8 72//8 176//8
f 269//8 162//8 66//8 177//8
f 268//8 178//8 65//8 121//8
f 267//8 179//8 73//8 180//8
f 266//8 146//8 50//8 181//8
f 265//8 182//8 64//8 120//8
f 264//8 183//8 74//8 184//8
f 263//8 159//8 63//8 185//8
f 262//16 186//16 48//16 144//16
f 261//8 187//8 75//8 188//8
f 260//8 158//8 62//8 189//8
f 259//8 190//8 61//8 117//8
f 258//8 191//8 76//8 192//8
f 257//8 147//8 51//8 193//8
f 256//8 194//8 60//8 116//8
f 255//8 195//8 77//8 196//8
f 254//8 155//8 59//8 197//8
f 253//8 198//8 40//8 96//8
f 252//8 199//8 78//8 200//8
f 251//8 154//8 58//8 201//8
f 250//8 202//8 57//8 113//8
f 249//8 203//8 79//8 204//8
f 248//17 89//17 33//17 205//17
f 247//8 206//8 56//8 112//8
f 246//8 207//8 80//8 208//8
f 245//8 151//8 55//8 209//8
f 244//8 210//8 41//8 97//8
f 243//8 211//8 81//8 212//8
f 242//8 150//8 54//8 213//8
f 241//8 214//8 53//8 109//8
f 240//8 215//8 82//8 216//8
f 239//18 101//18 45//18 217//18
f 238//8 218//8 52//8 108//8
f 237//8 219//8 83//8 220//8
f 236//8 135//8 39//8 221//8
f 235//19 222//19 36//19 132//19
f 234//8 223//8 84//8 224//8
f 233//8 134//8 38//8 225//8
f 232//20 226//20 32//20 128//20
f 231//8 227//8 85//8 228//8
f 230//21 105//21 49//21 229//21
f 227//8 230//8 229//8 85//8
f 69//8 165//8 230//8 227//8
f 165//22 21//22 105//22 230//22
f 162//8 231//8 228//8 66//8
f 29//8 125//8 231//8 162//8
f 125//8 69//8 227//8 231//8
f 122//23 232//23 128//23 16//23
f 66//8 228//8 232//8 122//8
f 228//8 85//8 226//8 232//8
f 223//8 233//8 225//8 84//8
f 65//8 161//8 233//8 223//8
f 161//8 22//8 134//8 233//8
f 158//8 234//8 224//8 62//8
f 28//8 121//8 234//8 158//8
f 121//8 65//8 223//8 234//8
f 118//24 235//24 132//24 20//24
f 62//8 224//8 235//8 118//8
f 224//8 84//8 222//8 235//8
f 219//8 236//8 221//8 83//8
f 61//8 157//8 236//8 219//8
f 157//8 23//8 135//8 236//8
f 154//8 237//8 220//8 58//8
f 27//8 117//8 237//8 154//8
f 117//8 61//8 219//8 237//8
f 114//8 238//8 108//8 24//8
f 58//8 220//8 238//8 114//8
f 220//8 83//8 218//8 238//8
f 215//8 239//8 217//8 82//8
f 57//8 153//8 239//8 215//8
f 153//25 17//25 101//25 239//25
f 150//8 240//8 216//8 54//8
f 26//8 113//8 240//8 150//8
f 113//8 57//8 215//8 240//8
f 110//8 241//8 109//8 25//8
f 54//8 216//8 241//8 110//8
f 216//8 82//8 214//8 241//8
f 211//8 242//8 213//8 81//8
f 56//8 152//8 242//8 211//8
f 152//8 26//8 150//8 242//8
f 135//8 243//8 212//8 39//8
f 23//8 112//8 243//8 135//8
f 112//8 56//8 211//8 243//8
f 95//8 244//8 97//8 13//8
f 39//8 212//8 244//8 95//8
f 212//8 81//8 210//8 244//8
f 207//8 245//8 209//8 80//8
f 43//26 99//26 245//26 207//26
f 99//27 15//27 151//27 245//27
f 147//8 246//8 208//8 51//8
f 10//28 139//28 246//28 147//28
f 139//29 43//29 207//29 246//29
f 107//8 247//8 112//8 23//8
f 51//8 208//8 247//8 107//8
f 208//8 80//8 206//8 247//8
f 203//8 248//8 205//8 79//8
f 31//30 87//30 248//30 203//30
f 87//31 8//31 89//31 248//31
f 151//8 249//8 204//8 55//8
f 15//32 127//32 249//32 151//32
f 127//33 31//33 203//33 249//33
f 111//8 250//8 113//8 26//8
f 55//8 204//8 250//8 111//8
f 204//8 79//8 202//8 250//8
f 199//8 251//8 201//8 78//8
f 60//8 156//8 251//8 199//8
f 156//8 27//8 154//8 251//8
f 130//34 252//34 200//34 34//34
f 18//35 116//35 252//35 130//35
f 116//8 60//8 199//8 252//8
f 90//36 253//36 96//36 9//36
f 34//37 200//37 253//37 90//37
f 200//8 78//8 198//8 253//8
f 195//8 254//8 197//8 77//8
f 47//38 103//38 254//38 195//38
f 103//39 19//39 155//39 254//39
f 142//40 255//40 196//40 46//40
f 5//41 143//41 255//41 142//41
f 143//42 47//42 195//42 255//42
f 102//43 256//43 116//43 18//43
f 46//44 196//44 256//44 102//44
f 196//8 77//8 194//8 256//8
f 191//8 257//8 193//8 76//8
f 35//45 91//45 257//45 191//45
f 91//46 10//46 147//46 257//46
f 155//8 258//8 192//8 59//8
f 19//47 131//47 258//47 155//47
f 131//48 35//48 191//48 258//48
f 115//8 259//8 117//8 27//8
f 59//8 192//8 259//8 115//8
f 192//8 76//8 190//8 259//8
f 187//8 260//8 189//8 75//8
f 64//8 160//8 260//8 187//8
f 160//8 28//8 158//8 260//8
f 126//49 261//49 188//49 30//49
f 14//50 120//50 261//50 126//50
f 120//8 64//8 187//8 261//8
f 86//51 262//51 144//51 6//51
f 30//52 188//52 262//52 86//52
f 188//8 75//8 186//8 262//8
f 183//8 263//8 185//8 74//8
f 40//8 136//8 263//8 183//8
f 136//8 24//8 159//8 263//8
f 138//53 264//53 184//53 42//53
f 9//54 96//54 264//54 138//54
f 96//8 40//8 183//8 264//8
f 98//55 265//55 120//55 14//55
f 42//56 184//56 265//56 98//56
f 184//8 74//8 182//8 265//8
f 179//8 266//8 181//8 73//8
f 52//8 148//8 266//8 179//8
f 148//8 13//8 146//8 266//8
f 159//8 267//8 180//8 63//8
f 24//8 108//8 267//8 159//8
f 108//8 52//8 179//8 267//8
f 119//8 268//8 121//8 28//8
f 63//8 180//8 268//8 119//8
f 180//8 73//8 178//8 268//8
f 175//8 269//8 177//8 72//8
f 68//8 164//8 269//8 175//8
f 164//8 29//8 162//8 269//8
f 134//8 270//8 176//8 38//8
f 22//8 124//8 270//8 134//8
f 124//8 68//8 175//8 270//8
f 94//57 271//57 140//57 11//57
f 38//8 176//8 271//8 94//8
f 176//8 72//8 174//8 271//8
f 171//8 272//8 173//8 71//8
f 41//8 137//8 272//8 171//8
f 137//8 25//8 163//8 272//8
f 146//8 273//8 172//8 50//8
f 13//8 97//8 273//8 146//8
f 97//8 41//8 171//8 273//8
f 106//8 274//8 124//8 22//8
f 50//8 172//8 274//8 106//8
f 172//8 71//8 170//8 274//8
f 167//8 275//8 169//8 70//8
f 53//8 149//8 275//8 167//8
f 149//58 12//58 93//58 275//58
f 163//8 276//8 168//8 67//8
f 25//8 109//8 276//8 163//8
f 109//8 53//8 167//8 276//8
f 123//8 277//8 125//8 29//8
f 67//8 168//8 277//8 123//8
f 168//8 70//8 166//8 277//8
f 166//8 278//8 165//8 69//8
f 70//8 169//8 278//8 166//8
f 169//59 37//59 133//59 278//59
f 170//8 279//8 164//8 68//8
f 71//8 173//8 279//8 170//8
f 173//8 67//8 123//8 279//8
f 174//60 280//60 100//60 44//60
f 72//8 177//8 280//8 174//8
f 177//8 66//8 122//8 280//8
f 178//8 281//8 161//8 65//8
f 73//8 181//8 281//8 178//8
f 181//8 50//8 106//8 281//8
f 182//8 282//8 160//8 64//8
f 74//8 185//8 282//8 182//8
f 185//8 63//8 119//8 282//8
f 186//61 283//61 104//61 48//61
f 75//8 189//8 283//8 186//8
f 189//8 62//8 118//8 283//8
f 190//8 284//8 157//8 61//8
f 76//8 193//8 284//8 190//8
f 193//8 51//8 107//8 284//8
f 194//8 285//8 156//8 60//8
f 77//8 197//8 285//8 194//8
f 197//8 59//8 115//8 285//8
f 198//8 286//8 136//8 40//8
f 78//8 201//8 286//8 198//8
f 201//8 58//8 114//8 286//8
f 202//8 287//8 153//8 57//8
f 79//8 205//8 287//8 202//8
f 205//62 33//62 129//62 287//62
f 206//8 288//8 152//8 56//8
f 80//8 209//8 288//8 206//8
f 209//8 55//8 111//8 288//8
f 210//8 289//8 137//8 41//8
f 81//8 213//8 289//8 210//8
f 213//8 54//8 110//8 289//8
f 214//8 290//8 149//8 53//8
f 82//8 217//8 290//8 214//8
f 217//63 45//63 141//63 290//63
f 218//8 291//8 148//8 52//8
f 83//8 221//8 291//8 218//8
f 221//8 39//8 95//8 291//8
f 222//64 292//64 92//64 36//64
f 84//8 225//8 292//8 222//8
f 225//8 38//8 94//8 292//8
f 226//65 293//65 88//65 32//65
f 85//8 229//8 293//8 226//8
f 229//66 49//66 145//66 293//66
